<svg width="120" height="120" viewBox="0 0 120 120" fill="none" xmlns="http://www.w3.org/2000/svg">

  <defs>
    <linearGradient id="bGradient" x1="0" y1="0" x2="1" y2="1">
      <stop offset="0%" stop-color="oklch(0.81 0.117 11.638)" />
      <stop offset="50%" stop-color="oklch(0.586 0.253 17.585)" />
      <stop offset="100%" stop-color="oklch(0.455 0.188 13.697)" />
    </linearGradient>
  </defs>

  <!-- Outer Shape -->
  <path
    d="M30 15
       H65
       C88 15 95 28 95 40
       C95 50 88 60 75 62
       C90 65 100 75 100 92
       C100 108 88 115 65 115
       H30
       Z"
    fill="url(#bGradient)"
  />

  <!-- Inner cutouts -->
  <path
    d="M45 30
       H63
       C75 30 78 35 78 42
       C78 48 75 53 63 53
       H45
       Z"
    fill="var(--background)"
  />

  <path
    d="M45 72
       H65
       C78 72 82 78 82 88
       C82 97 78 102 65 102
       H45
       Z"
    fill="var(--background)"
  />

  <!-- Film perforations -->
  <rect x="33" y="26" width="6" height="6" rx="1" fill="var(--background)" />
  <rect x="33" y="42" width="6" height="6" rx="1" fill="var(--background)" />
  <rect x="33" y="58" width="6" height="6" rx="1" fill="var(--background)" />
  <rect x="33" y="74" width="6" height="6" rx="1" fill="var(--background)" />
  <rect x="33" y="90" width="6" height="6" rx="1" fill="var(--background)" />

</svg>
